<svg xmlns="http://www.w3.org/2000/svg" width="60" height="82" viewBox="267.801 379.871 60 82" enable-background="new 267.801 379.871 60 82"><path d="M267.801 379.871v48.971h14.609v25.144h8.271v-25.144h2.983v31.761h8.271v-31.761h2.983v15.878h8.27v-15.878h14.612v-48.971h-59.999zm14.451 38.433c-1.005 0-1.82-.812-1.82-1.819 0-1.008.815-1.822 1.82-1.822 1.005 0 1.819.814 1.819 1.822 0 1.007-.814 1.819-1.819 1.819zm31.21 0c-1.005 0-1.82-.812-1.82-1.819 0-1.008.815-1.822 1.82-1.822s1.82.814 1.82 1.822c0 1.007-.815 1.819-1.82 1.819z"/></svg>